<?xml version="1.0" standalone="no"?>
<!DOCTYPE svg PUBLIC "-//W3C//DTD SVG 20010904//EN"
 "http://www.w3.org/TR/2001/REC-SVG-20010904/DTD/svg10.dtd">
<svg version="1.0" xmlns="http://www.w3.org/2000/svg"
 width="1024.000000pt" height="1024.000000pt" viewBox="0 0 1024.000000 1024.000000"
 preserveAspectRatio="xMidYMid meet">
<metadata>
Created by potrace 1.11, written by Peter Selinger 2001-2013
</metadata>
<g transform="translate(0.000000,1024.000000) scale(0.100000,-0.100000)"
fill="#000000" stroke="none">
<path d="M4680 8689 c-30 -22 -113 -74 -185 -116 -342 -200 -438 -265 -536
-366 -120 -122 -183 -237 -235 -425 -3 -10 -12 -9 -41 3 -59 25 -117 79 -149
139 l-30 56 -96 -197 c-82 -168 -106 -227 -145 -353 -3 -11 -9 -9 -23 10 -30
40 -59 125 -66 196 l-7 65 -33 -73 c-34 -73 -86 -224 -165 -480 l-42 -137 -58
45 -57 44 -20 -33 c-11 -17 -33 -68 -48 -112 -24 -70 -28 -100 -32 -232 -5
-166 3 -250 50 -543 l31 -195 -18 -195 c-10 -116 -20 -331 -23 -532 l-5 -337
76 1 c106 0 178 -33 257 -119 66 -72 66 -71 76 -280 l7 -133 63 0 c39 0 64 4
64 11 0 6 -8 65 -17 132 -22 154 -24 609 -5 732 49 300 151 517 301 641 77 65
243 149 320 164 133 25 306 4 521 -64 271 -86 488 -126 716 -133 290 -9 468
22 744 127 307 118 370 133 500 118 124 -15 294 -119 378 -232 128 -175 179
-362 189 -693 6 -223 -4 -375 -42 -598 -13 -77 -23 -140 -22 -141 9 -5 180
-64 188 -64 5 0 9 63 9 152 l0 151 31 48 c61 96 180 179 258 179 l34 0 -7 158
c-17 393 -66 797 -137 1137 -16 77 -45 226 -64 330 -70 371 -171 740 -250 912
-84 181 -224 326 -285 293 -18 -10 -34 -52 -42 -109 -3 -21 -12 -16 -108 63
-235 194 -398 278 -579 299 l-43 5 7 -45 c4 -25 9 -53 13 -62 3 -8 -25 7 -64
34 -309 221 -441 298 -574 334 -41 11 -131 30 -199 41 -212 36 -313 81 -354
160 -23 45 -18 137 12 205 12 26 20 49 19 51 -2 1 -28 -15 -58 -37z"/>
<path d="M3771 5039 c-89 -17 -220 -70 -274 -111 -17 -12 -16 -17 10 -78 15
-36 28 -67 29 -69 2 -2 38 11 81 29 153 64 196 73 343 72 144 -1 293 -22 460
-66 52 -13 96 -23 98 -22 5 5 -119 101 -174 135 -70 42 -177 86 -262 105 -76
17 -236 20 -311 5z"/>
<path d="M6093 5031 c-95 -26 -195 -69 -263 -113 -64 -41 -163 -118 -158 -123
2 -2 46 8 98 21 154 40 317 64 450 67 143 2 189 -7 333 -65 54 -22 100 -38
102 -37 1 2 15 33 29 69 31 75 33 70 -64 120 -106 53 -184 72 -325 76 -106 3
-143 1 -202 -15z"/>
<path d="M3943 4649 c-85 -54 -113 -224 -57 -337 68 -135 185 -133 257 3 32
59 31 192 -2 258 -44 91 -126 122 -198 76z m49 -76 c42 -37 -3 -123 -56 -107
-49 15 -65 59 -35 97 24 31 63 35 91 10z m66 -125 c15 -15 16 -55 1 -63 -21
-14 -59 5 -59 28 0 24 17 47 35 47 6 0 16 -5 23 -12z"/>
<path d="M5081 4020 c-1 -359 3 -650 7 -645 5 6 57 66 117 135 60 69 114 132
121 140 11 13 -9 102 -116 520 l-129 505 0 -655z"/>
<path d="M6114 4651 c-20 -12 -43 -41 -60 -77 -53 -108 -33 -257 42 -323 60
-53 108 -53 168 0 47 41 71 107 71 195 -1 165 -114 270 -221 205z m169 -73
c41 -32 24 -97 -29 -112 -27 -8 -74 28 -74 58 0 54 61 86 103 54z m-97 -144
c12 -17 12 -23 1 -39 -20 -26 -67 -13 -67 18 0 47 41 60 66 21z"/>
<path d="M2870 3727 c0 -32 53 -271 86 -392 86 -311 209 -544 410 -776 127
-146 323 -308 509 -419 l40 -24 -30 36 c-16 20 -62 74 -101 120 -185 217 -336
487 -419 750 -36 114 -80 312 -111 505 -26 158 -28 162 -48 151 -49 -26 -207
-4 -298 43 -30 15 -38 16 -38 6z"/>
<path d="M7256 3694 c-63 -23 -158 -35 -195 -24 -23 6 -33 6 -35 -3 -2 -7 -16
-91 -31 -187 -29 -193 -86 -427 -136 -564 -70 -193 -202 -416 -353 -596 l-80
-95 55 39 c464 330 705 731 822 1369 16 85 16 85 -47 61z"/>
</g>
</svg>
